# xmcd
#
# Track frame offsets: 
#        215
#        40815
#        90902
#        148542
#        201230
#        234707
#        277987
#
# Disc length: 4162 seconds
#
# Revision: 0
# Processed by: cddbd v1.5.2PL0 Copyright (c) Steve Scherf et al.
# Submitted via: ExactAudioCopy v1.0b1
#
DISCID=59104007
DTITLE=Sudeshna Miukhopadhyay and Amjad Ali Khan - Tribute to Tagore
DYEAR=1990
DGENRE=National Folk
TTITLE0=O Amar Chander Alo
TTITLE1=Akash Jude Shuninu
TTITLE2=Ami Tareyi Khunjey Bedai
TTITLE3=Kon Khela Je Khelbo Kakhon
TTITLE4=Phire Phire Dak Dekhire
TTITLE5=Aar Naire Bela
TTITLE6=Jadi Tor Dak Shuney
EXTD=
EXTT0=
EXTT1=
EXTT2=
EXTT3=
EXTT4=
EXTT5=
EXTT6=
PLAYORDER=
